<?xml version="1.0" encoding="UTF-8" standalone="no"?>
<!-- Created with Inkscape (http://www.inkscape.org/) -->

<svg
   width="512mm"
   height="512mm"
   viewBox="0 0 512 512"
   version="1.1"
   id="svg1"
   xml:space="preserve"
   sodipodi:docname="logoValleBot.svg"
   inkscape:export-filename="icon-192x192.png"
   inkscape:export-xdpi="9.5249996"
   inkscape:export-ydpi="9.5249996"
   inkscape:version="1.4 (e7c3feb100, 2024-10-09)"
   xmlns:inkscape="http://www.inkscape.org/namespaces/inkscape"
   xmlns:sodipodi="http://sodipodi.sourceforge.net/DTD/sodipodi-0.dtd"
   xmlns="http://www.w3.org/2000/svg"
   xmlns:svg="http://www.w3.org/2000/svg"><sodipodi:namedview
     id="namedview1"
     pagecolor="#ffffff"
     bordercolor="#000000"
     borderopacity="0.25"
     inkscape:showpageshadow="2"
     inkscape:pageopacity="0.0"
     inkscape:pagecheckerboard="0"
     inkscape:deskcolor="#d1d1d1"
     inkscape:document-units="mm"
     inkscape:zoom="0.25110404"
     inkscape:cx="762.63209"
     inkscape:cy="798.47381"
     inkscape:window-width="1920"
     inkscape:window-height="1052"
     inkscape:window-x="0"
     inkscape:window-y="0"
     inkscape:window-maximized="1"
     inkscape:current-layer="layer1" /><defs
     id="defs1" /><g
     id="layer1"
     transform="matrix(3.2894543,0,0,3.2894543,-69.195237,-135.87772)"><path
       style="fill:#000000;stroke-width:1.67039"
       d="m 101.05143,192.48289 c -3.85666,-0.52825 -6.288397,-3.31715 -6.288397,-7.21202 0,-4.31704 2.961631,-7.37509 7.142017,-7.37457 2.10402,2.7e-4 3.42164,0.47461 4.78851,1.72387 1.37006,1.25215 2.20405,3.42496 2.20963,5.75677 l 0.002,1.02533 h -5.16204 c -5.745677,0 -5.417481,-0.0652 -4.889459,0.96992 0.329027,0.64493 1.277659,1.52884 1.935989,1.8039 1.2955,0.54132 3.19344,0.36 4.68043,-0.44708 l 0.87839,-0.47678 0.86972,1.20476 c 1.00326,1.38974 1.04474,1.25547 -0.64656,2.09318 -1.67619,0.83019 -3.73261,1.17761 -5.52068,0.93272 z m 4.04281,-9.08592 c -0.18497,-0.81305 -0.70578,-1.65218 -1.24736,-2.0097 -1.32159,-0.87241 -3.0231,-0.72607 -4.202969,0.36151 -0.5456,0.50292 -1.203794,1.57724 -1.203794,1.96486 0,0.0924 1.196444,0.14302 3.379323,0.14302 h 3.37935 z m -40.508116,8.81195 c -1.551308,-0.62354 -2.333467,-1.48574 -2.721348,-2.99979 -0.397971,-1.5534 0.01988,-2.90418 1.236723,-3.99824 1.23126,-1.10701 3.069606,-1.55638 6.028217,-1.47352 1.16523,0.0326 1.732595,-9.7e-4 1.732477,-0.10263 -5.67e-4,-0.44475 -0.461845,-1.60145 -0.740132,-1.85597 -1.191289,-1.08952 -3.052854,-1.14336 -5.237121,-0.15151 -0.526039,0.23887 -0.980052,0.4086 -1.008916,0.37719 -0.0289,-0.0314 -0.321115,-0.59406 -0.649464,-1.25029 -0.68937,-1.37779 -0.720856,-1.29755 0.782728,-1.99386 1.129267,-0.52298 2.740057,-0.84363 4.237793,-0.84363 3.176196,0 5.129698,1.1785 6.055847,3.65335 0.2841,0.75917 0.300152,1.05963 0.30341,5.68077 l 0.0033,4.87921 -1.803186,0.0395 -1.803185,0.0395 v -0.78207 c 0,-0.43014 -0.03758,-0.78207 -0.08352,-0.78207 -0.04594,0 -0.345888,0.22453 -0.666501,0.49897 -1.078755,0.92337 -1.96934,1.24768 -3.563409,1.2977 -1.148358,0.0361 -1.543907,-0.009 -2.103789,-0.23282 z m 4.864389,-2.94276 c 1.079556,-0.55199 1.340772,-0.9673 1.340772,-2.13167 v -0.94435 l -1.522727,-0.0401 c -1.824382,-0.0482 -2.54721,0.12187 -3.171149,0.74583 -0.388149,0.38812 -0.467643,0.57333 -0.465037,1.08338 0.005,1.09153 0.769682,1.67357 2.19895,1.67502 0.659103,6.8e-4 1.035257,-0.0894 1.619191,-0.38805 z m 11.043144,2.77817 c -0.592152,-0.2959 -0.995052,-0.61452 -1.234419,-0.97625 -0.753594,-1.13876 -0.760227,-1.22707 -0.760227,-10.13318 v -8.25095 h 1.838547 1.838547 v 7.78296 c 0,8.39286 0.0083,8.4943 0.738964,8.88477 0.211956,0.1132 0.646909,0.1711 1.064339,0.14146 l 0.705924,-0.0501 0.09321,1.32753 c 0.05128,0.73017 0.06447,1.35623 0.0294,1.3913 -0.163873,0.16382 -1.253944,0.3154 -2.291006,0.31845 -1.000845,0.003 -1.254294,-0.0517 -2.023241,-0.4359 z m 8.794048,0.14094 c -0.84181,-0.32362 -1.710847,-1.2083 -2.023344,-2.05982 -0.160197,-0.43649 -0.207377,-2.16891 -0.243993,-8.95602 l -0.04544,-8.41488 1.914049,-0.0104 1.91405,-0.0104 5.34e-4,7.85851 c 5.01e-4,7.53995 0.01162,7.87683 0.276099,8.31048 0.306131,0.50209 0.935869,0.70145 1.781954,0.56413 l 0.487086,-0.079 v 1.39872 1.39873 l -0.530349,0.14735 c -0.888581,0.24677 -2.699466,0.17024 -3.530718,-0.14926 z m 47.266785,0.19953 c -1.47919,-0.19643 -3.42523,-1.22349 -4.33738,-2.28913 -1.08665,-1.26952 -1.80975,-3.19734 -1.80975,-4.82489 0,-1.89796 0.8671,-4.0127 2.17524,-5.30504 3.87185,-3.82515 10.50732,-2.02198 11.9073,3.23576 0.2578,0.96811 0.24785,2.94448 -0.0199,3.97267 -0.88993,3.41663 -4.33706,5.68585 -7.91545,5.21063 z m 3.21293,-1.91514 c 1.68827,-0.77366 2.86555,-2.36104 3.2223,-4.34464 0.48441,-2.69352 -1.02219,-5.42972 -3.51441,-6.38267 -2.77196,-1.05992 -5.851,0.36649 -6.96289,3.22569 -0.45436,1.16839 -0.46013,3.31047 -0.0121,4.44461 0.63654,1.61089 1.76975,2.70529 3.34693,3.23229 1.20329,0.4021 2.81764,0.32991 3.92007,-0.17528 z m 11.70662,1.74031 c -0.64859,-0.19731 -1.24349,-0.56494 -1.55513,-0.96109 -0.74522,-0.9473 -0.75453,-1.02228 -0.81657,-6.57915 l -0.0579,-5.19741 h -1.11821 -1.11821 v -0.70715 -0.70712 h 1.21231 1.2123 l -0.0456,-2.1216 -0.0456,-2.12159 0.81319,1.9e-4 0.81322,2.1e-4 v 2.1214 2.12139 h 2.19209 2.19211 v 0.70712 0.70715 h -2.19211 -2.19209 v 4.89319 c 0,4.20063 0.0321,4.96095 0.22718,5.37197 0.46558,0.98112 1.95503,1.43717 3.25129,0.99547 0.37284,-0.12706 0.72964,-0.17921 0.79288,-0.11597 0.0633,0.0633 0.13053,0.36236 0.14926,0.66471 0.0331,0.53052 0.0121,0.55834 -0.60212,0.79737 -0.66636,0.2593 -2.44435,0.33405 -3.11231,0.13088 z M 49.995108,191.88649 c -0.05445,-0.17722 -1.101489,-2.74062 -2.326919,-5.69644 -1.225448,-2.95581 -2.721148,-6.58338 -3.323808,-8.0613 -0.602642,-1.47789 -1.310536,-3.18339 -1.573104,-3.78999 -0.262569,-0.60661 -0.477382,-1.13165 -0.477382,-1.16677 0,-0.035 1.01827,-0.0638 2.26281,-0.0638 1.503082,0 2.262826,0.0504 2.262826,0.1503 0,0.0827 0.577336,1.62598 1.282976,3.4296 0.705655,1.80362 1.895675,4.86325 2.644493,6.79915 1.001382,2.58889 1.390148,3.44925 1.469792,3.25282 0.251795,-0.62091 4.962326,-13.15868 5.028589,-13.38436 0.06515,-0.2218 0.298148,-0.24748 2.24624,-0.24748 h 2.173543 L 61.399555,173.78 c -0.146155,0.36949 -1.137735,2.77196 -2.203693,5.33885 -1.06596,2.56688 -2.384865,5.74897 -2.930899,7.0713 -0.546033,1.32235 -1.330331,3.19979 -1.742884,4.17208 l -0.750088,1.76783 -1.839016,0.0394 c -1.806507,0.0388 -1.840767,0.0338 -1.937867,-0.28285 z m 62.729052,-9.23025 v -9.57453 l 4.56099,0.0619 c 3.74053,0.0506 4.71366,0.10522 5.40956,0.3034 2.31933,0.66038 3.67133,2.2786 3.67526,4.39897 0.003,1.56632 -0.5781,2.66246 -1.90432,3.59273 -0.45426,0.31865 -0.89534,0.57935 -0.98022,0.57935 -0.0848,0 -0.15428,0.0636 -0.15428,0.14146 0,0.0778 0.0813,0.14146 0.18079,0.14146 0.41624,0 2.192,0.99781 2.67611,1.50373 1.1606,1.21288 1.58135,3.40358 0.9667,5.03314 -0.36791,0.97535 -1.24673,1.92623 -2.25025,2.43473 -1.44906,0.73432 -2.11311,0.81481 -7.33647,0.88928 l -4.84385,0.069 z m 9.32485,7.83896 c 1.81174,-0.29394 3.02709,-1.12738 3.46818,-2.37831 0.46546,-1.3201 0.19192,-2.45569 -0.84209,-3.49612 -1.14895,-1.15607 -1.82172,-1.3466 -5.23319,-1.48211 -1.55569,-0.0619 -3.32176,-0.1165 -3.92458,-0.12135 l -1.09606,-0.009 v 3.81851 3.8185 l 3.35889,-0.001 c 1.84736,-5.9e-4 3.76836,-0.0674 4.26885,-0.14874 z m -0.9063,-9.05556 c 1.09269,-0.20201 2.01669,-0.68226 2.63996,-1.37214 1.36928,-1.51566 0.98736,-3.74748 -0.80824,-4.72316 -1.01568,-0.55191 -2.05311,-0.68052 -5.48871,-0.68052 h -3.06445 v 3.46493 3.46497 h 2.94399 c 1.61918,0 3.31903,-0.0693 3.77745,-0.15394 z M 48.568795,152.70747 c -1.539948,-1.61693 -4.392104,-5.18099 -6.031657,-7.53712 -1.328928,-1.90977 -3.173273,-5.10052 -4.410829,-7.63084 -3.269631,-6.68518 -5.301674,-13.80265 -6.103783,-21.37927 -0.322904,-3.05009 -0.322184,-9.59233 0.0014,-12.70445 1.463931,-14.079823 7.468598,-26.983534 17.2664,-37.104671 9.947819,-10.276067 23.314722,-17.276668 37.552836,-19.667378 3.908326,-0.656246 6.186302,-0.86912 10.253407,-0.95822 7.542981,-0.165207 13.812311,0.581714 20.563371,2.450043 6.89365,1.907803 12.81255,4.550459 18.88266,8.430704 9.42673,6.02593 17.48011,14.805513 22.5674,24.602361 3.56796,6.871007 5.95883,15.134578 6.66179,23.024981 0.22222,2.4945 0.22331,8.75101 0.002,11.17268 -1.03493,11.32169 -5.01272,21.96972 -11.66904,31.2366 -1.87045,2.60404 -4.6321,5.84475 -5.49688,6.45047 -0.92388,0.64714 -2.29461,-0.4147 -1.77985,-1.37878 0.0926,-0.1734 0.65197,-0.85627 1.24304,-1.51742 12.63367,-14.13166 17.97672,-33.1059 14.49625,-51.479163 -1.57288,-8.303321 -4.8706,-16.254522 -9.48848,-22.877932 -2.39166,-3.430329 -6.12959,-7.746395 -8.87399,-10.246467 -9.24221,-8.419431 -19.91486,-13.792587 -32.35746,-16.290438 -8.4652,-1.699369 -18.82543,-1.588072 -27.408423,0.29444 -8.702427,1.90872 -17.288161,5.662886 -24.266277,10.610614 -4.692925,3.327447 -9.597054,7.993445 -13.449974,12.796867 -1.450031,1.807761 -4.048606,5.743515 -5.268942,7.980234 -3.758041,6.888046 -6.299447,15.102679 -7.104949,22.965455 -0.26654,2.60176 -0.224772,9.44382 0.07407,12.13505 1.381563,12.44136 6.365369,23.88208 14.463499,33.20209 2.052524,2.36224 2.210542,2.5898 2.102117,3.02711 -0.156019,0.62922 -0.619797,0.99351 -1.264901,0.99351 -0.501001,0 -0.66226,-0.0839 -1.154775,-0.60106 z m 42.517936,-8.97914 c -0.804177,-1.53704 -2.461837,-4.70385 -3.68371,-7.03738 -1.221873,-2.33353 -3.510389,-6.72482 -5.085567,-9.75841 -1.575193,-3.03361 -3.388568,-6.50208 -4.029712,-7.70773 -0.641147,-1.20566 -2.009512,-3.81497 -3.040811,-5.79848 -1.031315,-1.98351 -2.956955,-5.67472 -4.279203,-8.20272 -1.322263,-2.528 -3.519125,-6.728374 -4.881929,-9.334125 -1.362804,-2.605785 -3.391341,-6.477096 -4.507862,-8.602896 -1.116522,-2.125803 -2.030042,-3.891855 -2.030042,-3.924577 0,-0.03275 2.976016,-0.05946 6.613355,-0.05946 h 6.613372 L 74.14561,86.025 c 0.754048,1.497353 1.967151,3.867999 2.695809,5.268118 0.72864,1.400136 2.634236,5.091349 4.234635,8.202723 3.249142,6.316729 10.733153,20.837679 14.250019,27.648829 1.265144,2.45022 2.586039,4.9871 2.935332,5.63754 l 0.635069,1.18261 0.915297,-1.74832 c 1.112829,-2.12564 3.997229,-7.71466 12.215489,-23.66938 3.44571,-6.68947 7.77344,-15.090168 9.61718,-18.668249 l 3.35225,-6.505613 6.65917,-0.03675 6.65919,-0.03675 -0.47144,0.814582 c -0.25931,0.448033 -1.37888,2.56473 -2.48797,4.703809 -1.10908,2.139079 -3.05074,5.862119 -4.31476,8.273435 -6.87489,13.114666 -11.78803,22.504296 -15.24429,29.133806 -1.05437,2.02239 -3.86109,7.40012 -6.23718,11.95052 l -4.32011,8.27343 -6.345218,0.0367 -6.345244,0.0368 z m 6.894394,-24.82173 c -0.443789,-0.87509 -1.410901,-2.75253 -2.149133,-4.17208 l -1.342253,-2.58103 h 4.387701 4.38771 l -1.52476,2.93459 c -0.83862,1.61404 -1.812887,3.49119 -2.165006,4.17147 -0.352153,0.68028 -0.67338,1.23715 -0.713841,1.2375 -0.04039,3.3e-4 -0.436647,-0.71539 -0.880418,-1.59045 z m -5.397944,-10.50872 c -0.434551,-0.82105 -0.789826,-1.50519 -0.789509,-1.52034 3.17e-4,-0.0156 3.186505,-0.0397 7.080404,-0.0548 3.893914,-0.0156 7.059204,0.0173 7.033944,0.0707 -0.0251,0.0539 -0.37994,0.75036 -0.78825,1.54766 l -0.74234,1.44961 h -5.502088 -5.502084 z m -1.967483,-3.84493 c -0.03524,-0.0589 -0.462716,-0.8709 -0.949935,-1.80431 -0.487218,-0.93341 -1.361433,-2.58648 -1.942711,-3.673463 l -1.056873,-1.97635 0.635249,-0.57514 c 0.995134,-0.90096 1.287218,-0.957231 5.304854,-1.022188 l 3.570998,-0.05773 v -1.403551 -1.403516 h -3.867291 c -4.501915,0 -4.34353,0.0501 -4.449148,-1.409896 L 87.800548,90.393232 87.2553,90.30118 c -0.732749,-0.123775 -1.224011,-0.538579 -1.396478,-1.179056 -0.192863,-0.716268 -0.102401,-4.10243 0.120776,-4.518875 0.249071,-0.464904 0.991008,-0.8752 1.583712,-0.875819 0.475043,-4.84e-4 0.519592,-0.03942 0.687365,-0.60159 0.586156,-1.96376 2.534415,-3.660257 4.668154,-4.064926 0.413304,-0.07834 1.69739,-0.142481 2.853546,-0.142481 h 2.102085 v -1.743184 c 0,-1.694025 -0.0104,-1.752839 -0.36701,-2.086033 -1.164633,-1.088024 -0.97819,-2.882823 0.369818,-3.560098 1.433386,-0.720157 3.109652,0.344549 3.108022,1.974131 -6e-4,0.64163 -0.42972,1.399602 -0.91841,1.622266 -0.350801,0.159851 -0.353887,0.176977 -0.353887,1.977072 v 1.815846 h 2.378587 c 3.23825,0 4.50414,0.390571 5.94907,1.835509 0.65939,0.659385 1.57219,2.243081 1.57219,2.727711 0,0.148339 0.20985,0.229445 0.72027,0.278487 0.56732,0.05445 0.81508,0.164029 1.16677,0.515716 l 0.44649,0.446494 v 2.328095 2.328105 l -0.44854,0.448522 c -0.36616,0.366177 -0.56742,0.451069 -1.09602,0.462355 l -0.64748,0.01387 -5e-5,0.883902 c -3e-5,1.493748 0.13348,1.449629 -4.38423,1.449629 h -3.81851 v 1.403534 1.403534 l 3.57101,0.05773 c 4.04154,0.06535 4.35414,0.126722 5.31121,1.043822 l 0.61396,0.588263 -0.82089,1.534694 c -0.45149,0.844083 -1.33957,2.521135 -1.97353,3.726795 l -1.15263,2.19211 -8.21042,0.0366 c -4.515723,0.0201 -8.239259,-0.0121 -8.274504,-0.0707 z m 14.805942,-3.15813 c 0.48265,-0.37964 0.52161,-1.22527 0.0751,-1.629569 -0.28111,-0.254519 -0.63391,-0.272028 -6.377812,-0.316684 -3.344121,-0.026 -6.234817,-0.0087 -6.423754,0.039 -0.890485,0.223507 -1.188699,1.219483 -0.554904,1.853293 l 0.347124,0.34714 h 6.28082 c 6.140006,0 6.289176,-0.007 6.653466,-0.29313 z M 94.215035,87.74832 c 0.837847,-0.433283 0.963963,-1.649368 0.229684,-2.214653 -0.368427,-0.283615 -1.342564,-0.32429 -1.673902,-0.06983 -0.519876,0.399139 -0.706858,1.247783 -0.400894,1.81949 0.147993,0.276467 0.860083,0.669549 1.233365,0.680783 0.101066,0.0035 0.376373,-0.09396 0.611747,-0.215741 z m 10.592095,0.0087 c 1.23228,-0.637235 0.73667,-2.473498 -0.66763,-2.473498 -0.68475,0 -1.10773,0.290699 -1.30858,0.899331 -0.19357,0.58646 -0.0317,1.070519 0.49692,1.486345 0.45161,0.355239 0.90959,0.382421 1.47929,0.08789 z"
       id="path1" /></g></svg>
