<?xml version="1.0" encoding="UTF-8" standalone="no"?>
<!-- Created with Inkscape (http://www.inkscape.org/) -->

<svg
   width="500"
   height="500"
   viewBox="0 0 500.00001 500.00001"
   id="svg2"
   version="1.1"
   inkscape:version="1.3.1 (91b66b0, 2023-11-16)"
   sodipodi:docname="logo_valleapp_v2.svg"
   xmlns:inkscape="http://www.inkscape.org/namespaces/inkscape"
   xmlns:sodipodi="http://sodipodi.sourceforge.net/DTD/sodipodi-0.dtd"
   xmlns="http://www.w3.org/2000/svg"
   xmlns:svg="http://www.w3.org/2000/svg"
   xmlns:rdf="http://www.w3.org/1999/02/22-rdf-syntax-ns#"
   xmlns:cc="http://creativecommons.org/ns#"
   xmlns:dc="http://purl.org/dc/elements/1.1/">
  <defs
     id="defs4" />
  <sodipodi:namedview
     id="base"
     pagecolor="#ffffff"
     bordercolor="#666666"
     borderopacity="1.0"
     inkscape:pageopacity="0.0"
     inkscape:pageshadow="2"
     inkscape:zoom="1.146"
     inkscape:cx="169.72077"
     inkscape:cy="268.76091"
     inkscape:document-units="px"
     inkscape:current-layer="layer1"
     showgrid="false"
     units="px"
     inkscape:window-width="1440"
     inkscape:window-height="847"
     inkscape:window-x="0"
     inkscape:window-y="25"
     inkscape:window-maximized="1"
     inkscape:showpageshadow="2"
     inkscape:pagecheckerboard="0"
     inkscape:deskcolor="#d1d1d1" />
  <metadata
     id="metadata7">
    <rdf:RDF>
      <cc:Work
         rdf:about="">
        <dc:format>image/svg+xml</dc:format>
        <dc:type
           rdf:resource="http://purl.org/dc/dcmitype/StillImage" />
        <dc:title />
      </cc:Work>
    </rdf:RDF>
  </metadata>
  <g
     inkscape:label="Capa 1"
     inkscape:groupmode="layer"
     id="layer1"
     transform="translate(0,-552.36216)">
    <text
       xml:space="preserve"
       style="font-style:normal;font-weight:normal;line-height:0%;font-family:sans-serif;letter-spacing:0px;word-spacing:0px;fill:#000000;fill-opacity:1;stroke:none;stroke-width:1px;stroke-linecap:butt;stroke-linejoin:miter;stroke-opacity:1"
       x="214.28571"
       y="980.93365"
       id="text4186"><tspan
         sodipodi:role="line"
         id="tspan4188"
         x="214.28571"
         y="980.93365"
         style="font-size:40px;line-height:1.25"> </tspan></text>
    <g
       id="g4161"
       inkscape:export-xdpi="90"
       inkscape:export-ydpi="90">
      <path
         inkscape:connector-curvature="0"
         id="rect4335"
         d="m 83.366551,591.2505 c -29.816016,0 -53.819447,30.85309 -53.819447,69.1778 l 0,277.32783 c 0,38.32471 24.003431,69.17777 53.819447,69.17777 l 59.032149,0 c -3.50431,-3.1384 -6.65363,-6.7843 -9.40344,-10.82266 l -38.510317,0 c -25.266717,0 -45.608656,-20.91108 -45.608656,-46.8851 l 0,-294.38692 c 0,-25.97402 20.341939,-46.8851 45.608656,-46.8851 l 33.951507,0 c 3.12259,-6.34692 7.14221,-12.00396 11.88332,-16.70362 l -56.953219,0 z m 267.195119,0 c 4.74112,4.69966 8.76075,10.3567 11.88335,16.70362 l 38.54527,0 c 25.2667,0 45.60864,20.91108 45.60864,46.8851 l 0,294.38692 c 0,25.97402 -20.34194,46.8851 -45.60864,46.8851 l -43.10409,0 c -2.74981,4.03836 -5.89913,7.68426 -9.40345,10.82266 l 65.46221,0 c 29.81601,0 53.81943,-30.85306 53.81943,-69.17777 l 0,-277.32783 c 0,-38.32471 -24.00342,-69.1778 -53.81943,-69.1778 l -63.38329,0 z"
         style="fill:#000000;fill-opacity:1;fill-rule:nonzero;stroke:#010a0a;stroke-width:8.7007885;stroke-linecap:round;stroke-miterlimit:4;stroke-dasharray:none;stroke-opacity:1" />
      <ellipse
         ry="23.163109"
         rx="21.943996"
         cy="799.09222"
         cx="28.795811"
         id="path4147"
         style="fill:#000000;fill-opacity:1;fill-rule:nonzero;stroke:#010a0a;stroke-width:2.79420233;stroke-linecap:round;stroke-miterlimit:4;stroke-dasharray:none;stroke-opacity:1" />
      <ellipse
         style="fill:#000000;fill-opacity:1;fill-rule:nonzero;stroke:#010a0a;stroke-width:2.79420233;stroke-linecap:round;stroke-miterlimit:4;stroke-dasharray:none;stroke-opacity:1"
         id="ellipse4151"
         cx="471.45898"
         cy="799.09222"
         rx="21.943996"
         ry="23.163109" />
    </g>
    <path
       style="fill:#000000"
       d="m 89.94329,838.69191 0,-88.82001 6.941684,-0.95147 c 3.817936,-0.52329 10.115836,-0.95146 13.995356,-0.95146 l 7.05368,0 10.62445,41.51931 c 5.84345,22.83562 13.85288,54.47805 17.79871,70.31649 3.94584,15.83846 7.56444,28.79921 8.04134,28.80168 0.7235,0.004 12.28908,-44.48657 32.62596,-125.50509 l 3.90066,-15.53952 14.21935,0.86697 c 24.46213,1.49149 22.84248,0.25869 47.12119,35.8665 11.65895,17.09933 21.87711,31.76871 22.70704,32.59863 1.01449,1.01449 7.06355,-5.8639 18.45956,-20.99038 l 16.95059,-22.49934 38.65124,0 c 21.2582,0 38.65126,0.55593 38.65126,1.23539 0,1.82973 -6.09205,7.06845 -11.24021,9.66574 -2.47905,1.2507 -11.40548,4.67509 -19.8365,7.60974 -8.43104,2.93464 -16.59368,6.01247 -18.13921,6.83963 -1.54554,0.82714 -13.28888,15.87342 -26.09632,33.43616 -13.98346,19.17545 -24.83868,32.63961 -27.1722,33.70285 -2.13726,0.9738 -6.86062,1.77055 -10.49635,1.77055 -8.47761,0 -11.85938,-2.95856 -31.40167,-27.47193 -8.22905,-10.32231 -15.46688,-18.79984 -16.08406,-18.83893 -0.61718,-0.0391 -1.12214,23.83058 -1.12214,53.04372 l 0,53.11479 -68.07671,0 -68.0767,0 0,-88.82002 z m 182.58798,-81.64743 c -0.85186,-1.59171 -1.54883,-5.96807 -1.54883,-9.72524 0,-8.14201 3.77576,-12.81599 10.35309,-12.81599 3.89584,0 4.62931,-0.7857 6.78105,-7.26401 7.1569,-21.54741 26.3797,-38.34364 48.7483,-42.59462 l 8.45066,-1.60598 -4.25035,-3.57642 c -8.98147,-7.55742 -3.70237,-21.26473 8.18968,-21.26473 7.42806,0 11.49905,4.19046 11.49905,11.83654 0,4.59229 -0.91479,6.62149 -4.25034,9.42819 l -4.25035,3.57642 8.88297,1.68813 c 22.438,4.26418 40.63003,20.04253 48.4303,42.00469 2.34539,6.60361 3.33214,7.77179 6.56477,7.77179 7.16686,0 10.45507,3.82214 10.45507,12.15274 0,14.50869 7.18228,13.28251 -77.80195,13.28251 -72.32665,0 -74.75358,-0.0922 -76.25312,-2.89402 z M 140.73982,732.55483 c -13.52259,-3.82462 -27.12708,-15.61709 -33.13714,-28.7235 -4.8139,-10.49792 -4.90255,-31.21851 -0.1774,-41.47028 4.87465,-10.57616 15.47234,-21.0441 26.30508,-25.98304 7.71544,-3.51768 11.40207,-4.26237 21.32872,-4.30831 10.60934,-0.0491 13.16118,0.5156 22.00601,4.8699 26.67118,13.13018 36.66527,44.79671 22.43519,71.08637 -10.679,19.72914 -36.95271,30.69679 -58.76046,24.52886 z"
       id="path5830"
       inkscape:connector-curvature="0" />
    <g
       id="layer1-1"
       inkscape:label="Capa 1"
       transform="matrix(0.28879654,0,0,0.28879654,297.37245,681.09408)">
      <text
         id="text4186-8"
         y="980.93365"
         x="214.28571"
         style="font-style:normal;font-weight:normal;line-height:0%;font-family:sans-serif;letter-spacing:0px;word-spacing:0px;fill:#000000;fill-opacity:1;stroke:none;stroke-width:1px;stroke-linecap:butt;stroke-linejoin:miter;stroke-opacity:1"
         xml:space="preserve"><tspan
           y="980.93365"
           x="214.28571"
           id="tspan4188-2"
           sodipodi:role="line"
           style="font-size:40px;line-height:1.25"> </tspan></text>
      <text
         id="text4450"
         y="719.02881"
         x="249.56371"
         style="font-style:normal;font-weight:normal;line-height:0%;font-family:sans-serif;letter-spacing:0px;word-spacing:0px;fill:#000000;fill-opacity:1;stroke:none;stroke-width:1px;stroke-linecap:butt;stroke-linejoin:miter;stroke-opacity:1"
         xml:space="preserve"><tspan
           y="719.02881"
           x="249.56371"
           id="tspan4452"
           sodipodi:role="line"
           style="font-size:40px;line-height:1.25"> </tspan></text>
      <text
         id="text4355"
         y="795.42902"
         x="163.75742"
         style="font-style:normal;font-weight:normal;line-height:0%;font-family:sans-serif;letter-spacing:0px;word-spacing:0px;fill:#000000;fill-opacity:1;stroke:none;stroke-width:1px;stroke-linecap:butt;stroke-linejoin:miter;stroke-opacity:1"
         xml:space="preserve"><tspan
           style="font-style:normal;font-variant:normal;font-weight:normal;font-stretch:normal;font-size:72.5292px;line-height:125%;font-family:Phosphate;-inkscape-font-specification:'Phosphate, Normal';text-align:start;writing-mode:lr-tb;text-anchor:start"
           y="795.42902"
           x="163.75742"
           id="tspan4357"
           sodipodi:role="line">VALLE</tspan></text>
      <text
         id="text4363"
         y="822.43616"
         x="229.76161"
         style="font-style:normal;font-weight:normal;line-height:0%;font-family:sans-serif;letter-spacing:0px;word-spacing:0px;fill:#000000;fill-opacity:1;stroke:none;stroke-width:1px;stroke-linecap:butt;stroke-linejoin:miter;stroke-opacity:1"
         xml:space="preserve"><tspan
           y="822.43616"
           x="229.76161"
           id="tspan4365"
           sodipodi:role="line"
           style="font-size:27.6825px;line-height:1.25">app</tspan></text>
      <path
         inkscape:export-ydpi="90"
         inkscape:export-xdpi="90"
         inkscape:connector-curvature="0"
         id="text4454"
         d="m 69.183061,593.89677 77.194479,202.18738 28.22089,-73.92053 -48.26517,-128.26685 -57.150199,0 z m 313.644159,0 -48.36116,128.24367 28.18446,73.94371 77.05545,-202.18738 -56.87875,0 z m -180.41176,202.18738 -27.81703,73.92383 48.97028,128.26683 62.02306,0 48.87429,-128.24367 -27.88325,-73.94699 -52.13829,138.27076 -52.02906,-138.27076 z"
         style="font-style:normal;font-weight:normal;font-size:327.27429199px;line-height:125%;font-family:sans-serif;letter-spacing:0px;word-spacing:0px;fill:#000000;fill-opacity:1;stroke:none;stroke-width:1px;stroke-linecap:butt;stroke-linejoin:miter;stroke-opacity:1" />
    </g>
  </g>
</svg>
