<svg xmlns="http://www.w3.org/2000/svg" viewBox="0 0 512 512">
  <defs>
    <linearGradient id="grad1" x1="0%" y1="0%" x2="100%" y2="100%">
      <stop offset="0%" style="stop-color:#cfb6d4;stop-opacity:1" />
      <stop offset="100%" style="stop-color:#9d7fa8;stop-opacity:1" />
    </linearGradient>
  </defs>
  
  <!-- Fondo circular -->
  <circle cx="256" cy="256" r="240" fill="url(#grad1)"/>
  
  <!-- Plato/bandeja -->
  <ellipse cx="256" cy="280" rx="140" ry="20" fill="#fff" opacity="0.3"/>
  <ellipse cx="256" cy="270" rx="160" ry="25" fill="#fff" opacity="0.5"/>
  
  <!-- Campana/cloche principal -->
  <path d="M 180 220 Q 180 140 256 120 Q 332 140 332 220 L 332 260 L 180 260 Z" fill="#fff" stroke="#4a4a4a" stroke-width="4"/>
  
  <!-- Reflejo en la campana -->
  <path d="M 210 180 Q 210 150 256 140 Q 280 145 280 170 L 280 200 L 210 200 Z" fill="#fff" opacity="0.4"/>
  
  <!-- Manija de la campana -->
  <ellipse cx="256" cy="110" rx="20" ry="12" fill="#4a4a4a"/>
  <rect x="246" y="110" width="20" height="15" fill="#4a4a4a" rx="3"/>
  
  <!-- Base de la campana -->
  <rect x="175" y="260" width="162" height="12" fill="#4a4a4a" rx="4"/>
  
  <!-- Ondas de notificación -->
  <path d="M 140 200 Q 130 200 120 190" fill="none" stroke="#fff" stroke-width="8" opacity="0.6" stroke-linecap="round"/>
  <path d="M 130 230 Q 115 230 100 220" fill="none" stroke="#fff" stroke-width="8" opacity="0.6" stroke-linecap="round"/>
  
  <path d="M 372 200 Q 382 200 392 190" fill="none" stroke="#fff" stroke-width="8" opacity="0.6" stroke-linecap="round"/>
  <path d="M 382 230 Q 397 230 412 220" fill="none" stroke="#fff" stroke-width="8" opacity="0.6" stroke-linecap="round"/>
  
  <!-- Punto de notificación -->
  <circle cx="360" cy="140" r="30" fill="#ff4444"/>
  <circle cx="360" cy="140" r="25" fill="#ff6666"/>
  <text x="360" y="153" font-family="Arial, sans-serif" font-size="32" font-weight="bold" fill="#fff" text-anchor="middle">!</text>
</svg>
