<svg xmlns="http://www.w3.org/2000/svg" viewBox="0 0 512 512">
  <!-- Safari Pinned Tab - Monocromático -->
  
  <!-- Plato/bandeja -->
  <ellipse cx="256" cy="280" rx="140" ry="20" fill="#000" opacity="0.2"/>
  <ellipse cx="256" cy="270" rx="160" ry="25" fill="#000" opacity="0.3"/>
  
  <!-- Campana/cloche principal -->
  <path d="M 180 220 Q 180 140 256 120 Q 332 140 332 220 L 332 260 L 180 260 Z" fill="#000"/>
  
  <!-- Manija de la campana -->
  <ellipse cx="256" cy="110" rx="20" ry="12" fill="#000"/>
  <rect x="246" y="110" width="20" height="15" fill="#000" rx="3"/>
  
  <!-- Base de la campana -->
  <rect x="175" y="260" width="162" height="12" fill="#000" rx="4"/>
  
  <!-- Ondas de notificación -->
  <path d="M 140 200 Q 130 200 120 190" fill="none" stroke="#000" stroke-width="8" stroke-linecap="round"/>
  <path d="M 130 230 Q 115 230 100 220" fill="none" stroke="#000" stroke-width="8" stroke-linecap="round"/>
  
  <path d="M 372 200 Q 382 200 392 190" fill="none" stroke="#000" stroke-width="8" stroke-linecap="round"/>
  <path d="M 382 230 Q 397 230 412 220" fill="none" stroke="#000" stroke-width="8" stroke-linecap="round"/>
  
  <!-- Punto de notificación -->
  <circle cx="360" cy="140" r="30" fill="#000"/>
</svg>
